<mxfile modified="2020-08-05T22:30:57.599Z" host="app.diagrams.net" agent="5.0 (Macintosh; Intel Mac OS X 10_15_4) AppleWebKit/537.36 (KHTML, like Gecko) Chrome/83.0.4103.116 Safari/537.36" etag="68NpwljDh1e13Ou_Q8vP" version="13.6.0" type="github">
  <diagram id="Ht1M8jgEwFfnCIfOTk4-" name="Page-1">
    <mxGraphModel dx="1090" dy="857" grid="1" gridSize="10" guides="1" tooltips="1" connect="1" arrows="1" fold="1" page="1" pageScale="1" pageWidth="1169" pageHeight="827" math="0" shadow="0">
      <root>
        <mxCell id="0" />
        <mxCell id="1" parent="0" />
        <mxCell id="3SQsZM_puAXQ-Eyw58xM-1" value="" style="outlineConnect=0;fontColor=#232F3E;gradientColor=none;fillColor=#232F3E;strokeColor=none;dashed=0;verticalLabelPosition=bottom;verticalAlign=top;align=center;html=1;fontSize=12;fontStyle=0;aspect=fixed;pointerEvents=1;shape=mxgraph.aws4.mobile_client;" vertex="1" parent="1">
          <mxGeometry x="60" y="166.88" width="61.27" height="116.56" as="geometry" />
        </mxCell>
        <mxCell id="3SQsZM_puAXQ-Eyw58xM-39" value="Mobile App (Ionic,Kotlin,Flutter)" style="text;html=1;strokeColor=none;fillColor=none;align=center;verticalAlign=middle;whiteSpace=wrap;rounded=0;" vertex="1" parent="1">
          <mxGeometry x="25.629999999999995" y="298.44" width="130" height="30" as="geometry" />
        </mxCell>
        <mxCell id="3SQsZM_puAXQ-Eyw58xM-40" value="" style="rounded=0;whiteSpace=wrap;html=1;rotation=-90;" vertex="1" parent="1">
          <mxGeometry x="288.75" y="95.25" width="292.5" height="240" as="geometry" />
        </mxCell>
        <mxCell id="3SQsZM_puAXQ-Eyw58xM-41" value="" style="strokeColor=#dddddd;shadow=1;strokeWidth=1;rounded=1;absoluteArcSize=1;arcSize=2;" vertex="1" parent="1">
          <mxGeometry x="385" y="80" width="100" height="60" as="geometry" />
        </mxCell>
        <mxCell id="3SQsZM_puAXQ-Eyw58xM-42" value="Firebase" style="dashed=0;connectable=0;html=1;fillColor=#5184F3;strokeColor=none;shape=mxgraph.gcp2.firebase;part=1;labelPosition=right;verticalLabelPosition=middle;align=left;verticalAlign=middle;spacingLeft=5;fontColor=#999999;fontSize=12;" vertex="1" parent="3SQsZM_puAXQ-Eyw58xM-41">
          <mxGeometry width="32.4" height="45" relative="1" as="geometry">
            <mxPoint x="5" y="7" as="offset" />
          </mxGeometry>
        </mxCell>
        <mxCell id="3SQsZM_puAXQ-Eyw58xM-43" value="Firebase Auth" style="rounded=0;whiteSpace=wrap;html=1;" vertex="1" parent="1">
          <mxGeometry x="380" y="150" width="120" height="60" as="geometry" />
        </mxCell>
        <mxCell id="3SQsZM_puAXQ-Eyw58xM-45" value="Cloud function" style="rounded=0;whiteSpace=wrap;html=1;" vertex="1" parent="1">
          <mxGeometry x="375" y="268.44" width="120" height="60" as="geometry" />
        </mxCell>
        <mxCell id="3SQsZM_puAXQ-Eyw58xM-48" value="" style="endArrow=classic;html=1;entryX=0;entryY=0.5;entryDx=0;entryDy=0;" edge="1" parent="1" source="3SQsZM_puAXQ-Eyw58xM-1" target="3SQsZM_puAXQ-Eyw58xM-43">
          <mxGeometry width="50" height="50" relative="1" as="geometry">
            <mxPoint x="470" y="440" as="sourcePoint" />
            <mxPoint x="520" y="390" as="targetPoint" />
          </mxGeometry>
        </mxCell>
        <mxCell id="3SQsZM_puAXQ-Eyw58xM-58" value="" style="shape=cylinder2;whiteSpace=wrap;html=1;boundedLbl=1;backgroundOutline=1;size=15;" vertex="1" parent="1">
          <mxGeometry x="750" y="95.25" width="150" height="223.44" as="geometry" />
        </mxCell>
        <mxCell id="3SQsZM_puAXQ-Eyw58xM-61" value="Cloud&#xa;Firestore" style="html=1;fillColor=#5184F3;strokeColor=none;verticalAlign=top;labelPosition=center;verticalLabelPosition=bottom;align=center;spacingTop=-6;fontSize=11;fontStyle=1;fontColor=#999999;shape=mxgraph.gcp2.hexIcon;prIcon=cloud_firestore" vertex="1" parent="1">
          <mxGeometry x="770" y="165.25" width="110" height="100" as="geometry" />
        </mxCell>
        <mxCell id="3SQsZM_puAXQ-Eyw58xM-65" value="Store Userdata and event&amp;nbsp;" style="text;html=1;align=center;verticalAlign=middle;resizable=0;points=[];autosize=1;" vertex="1" parent="1">
          <mxGeometry x="580" y="196.97" width="160" height="20" as="geometry" />
        </mxCell>
        <mxCell id="3SQsZM_puAXQ-Eyw58xM-70" value="" style="endArrow=classic;startArrow=classic;html=1;exitX=0.5;exitY=1;exitDx=0;exitDy=0;entryX=0;entryY=0.564;entryDx=0;entryDy=0;entryPerimeter=0;" edge="1" parent="1" source="3SQsZM_puAXQ-Eyw58xM-40" target="3SQsZM_puAXQ-Eyw58xM-58">
          <mxGeometry width="50" height="50" relative="1" as="geometry">
            <mxPoint x="470" y="440" as="sourcePoint" />
            <mxPoint x="750" y="250" as="targetPoint" />
          </mxGeometry>
        </mxCell>
        <mxCell id="3SQsZM_puAXQ-Eyw58xM-72" value="" style="endArrow=classic;startArrow=classic;html=1;exitX=1;exitY=0.5;exitDx=0;exitDy=0;entryX=0;entryY=0.609;entryDx=0;entryDy=0;entryPerimeter=0;" edge="1" parent="1" source="3SQsZM_puAXQ-Eyw58xM-45" target="3SQsZM_puAXQ-Eyw58xM-58">
          <mxGeometry width="50" height="50" relative="1" as="geometry">
            <mxPoint x="470" y="440" as="sourcePoint" />
            <mxPoint x="740" y="310" as="targetPoint" />
          </mxGeometry>
        </mxCell>
        <mxCell id="3SQsZM_puAXQ-Eyw58xM-73" value="create update delete event" style="text;html=1;align=center;verticalAlign=middle;resizable=0;points=[];autosize=1;rotation=-15;" vertex="1" parent="1">
          <mxGeometry x="580" y="265.25" width="160" height="20" as="geometry" />
        </mxCell>
        <mxCell id="3SQsZM_puAXQ-Eyw58xM-74" value="http request for search event" style="text;html=1;strokeColor=none;fillColor=none;align=center;verticalAlign=middle;whiteSpace=wrap;rounded=0;rotation=15;" vertex="1" parent="1">
          <mxGeometry x="140" y="240" width="190" height="20" as="geometry" />
        </mxCell>
        <mxCell id="3SQsZM_puAXQ-Eyw58xM-75" value="" style="rounded=0;whiteSpace=wrap;html=1;" vertex="1" parent="1">
          <mxGeometry x="257.5" y="450" width="385" height="200" as="geometry" />
        </mxCell>
        <mxCell id="3SQsZM_puAXQ-Eyw58xM-76" value="&lt;font style=&quot;font-size: 20px&quot;&gt;microservices&lt;/font&gt;" style="text;html=1;align=center;verticalAlign=middle;resizable=0;points=[];autosize=1;" vertex="1" parent="1">
          <mxGeometry x="380" y="460" width="140" height="20" as="geometry" />
        </mxCell>
        <mxCell id="3SQsZM_puAXQ-Eyw58xM-77" value="" style="shape=image;html=1;verticalAlign=top;verticalLabelPosition=bottom;labelBackgroundColor=#ffffff;imageAspect=0;aspect=fixed;image=https://cdn3.iconfinder.com/data/icons/google-suits-1/32/1_google_search_logo_engine_service_suits-128.png" vertex="1" parent="1">
          <mxGeometry x="437.5" y="495" width="30" height="30" as="geometry" />
        </mxCell>
        <mxCell id="3SQsZM_puAXQ-Eyw58xM-78" value="" style="shape=image;html=1;verticalAlign=top;verticalLabelPosition=bottom;labelBackgroundColor=#ffffff;imageAspect=0;aspect=fixed;image=https://cdn0.iconfinder.com/data/icons/global-top-brands/430/yahoo-logo-128.png" vertex="1" parent="1">
          <mxGeometry x="485" y="497.5" width="25" height="25" as="geometry" />
        </mxCell>
        <mxCell id="3SQsZM_puAXQ-Eyw58xM-82" value="getAppointmentFromService" style="text;html=1;strokeColor=none;fillColor=none;align=center;verticalAlign=middle;whiteSpace=wrap;rounded=0;" vertex="1" parent="1">
          <mxGeometry x="208" y="500" width="287" height="20" as="geometry" />
        </mxCell>
        <mxCell id="3SQsZM_puAXQ-Eyw58xM-88" value="build and daily run&amp;nbsp;&amp;nbsp;" style="text;html=1;align=center;verticalAlign=middle;resizable=0;points=[];autosize=1;" vertex="1" parent="1">
          <mxGeometry x="660" y="560" width="120" height="20" as="geometry" />
        </mxCell>
        <mxCell id="3SQsZM_puAXQ-Eyw58xM-95" value="" style="whiteSpace=wrap;html=1;aspect=fixed;" vertex="1" parent="1">
          <mxGeometry x="780" y="430" width="220" height="220" as="geometry" />
        </mxCell>
        <mxCell id="3SQsZM_puAXQ-Eyw58xM-96" value="" style="strokeColor=#dddddd;shadow=1;strokeWidth=1;rounded=1;absoluteArcSize=1;arcSize=2;" vertex="1" parent="1">
          <mxGeometry x="790" y="435" width="100" height="70" as="geometry" />
        </mxCell>
        <mxCell id="3SQsZM_puAXQ-Eyw58xM-97" value="App&#xa;Engine" style="dashed=0;connectable=0;html=1;fillColor=#5184F3;strokeColor=none;shape=mxgraph.gcp2.hexIcon;prIcon=app_engine;part=1;labelPosition=right;verticalLabelPosition=middle;align=left;verticalAlign=middle;spacingLeft=5;fontColor=#999999;fontSize=12;" vertex="1" parent="3SQsZM_puAXQ-Eyw58xM-96">
          <mxGeometry y="0.5" width="44" height="39" relative="1" as="geometry">
            <mxPoint x="5" y="-19.5" as="offset" />
          </mxGeometry>
        </mxCell>
        <mxCell id="3SQsZM_puAXQ-Eyw58xM-99" value="" style="strokeColor=#dddddd;shadow=1;strokeWidth=1;rounded=1;absoluteArcSize=1;arcSize=2;" vertex="1" parent="1">
          <mxGeometry x="830" y="560" width="120" height="60" as="geometry" />
        </mxCell>
        <mxCell id="3SQsZM_puAXQ-Eyw58xM-100" value="Cloud Run" style="dashed=0;connectable=0;html=1;fillColor=#5184F3;strokeColor=none;shape=mxgraph.gcp2.hexIcon;prIcon=cloud_run;part=1;labelPosition=right;verticalLabelPosition=middle;align=left;verticalAlign=middle;spacingLeft=5;fontColor=#999999;fontSize=12;" vertex="1" parent="3SQsZM_puAXQ-Eyw58xM-99">
          <mxGeometry y="0.5" width="44" height="39" relative="1" as="geometry">
            <mxPoint x="5" y="-19.5" as="offset" />
          </mxGeometry>
        </mxCell>
        <mxCell id="3SQsZM_puAXQ-Eyw58xM-102" value="Cloud Scheduler" style="html=1;fillColor=#5184F3;strokeColor=none;verticalAlign=top;labelPosition=center;verticalLabelPosition=bottom;align=center;fontSize=11;fontStyle=1;fontColor=#999999;shape=mxgraph.gcp2.cloud_scheduler" vertex="1" parent="1">
          <mxGeometry x="930" y="452.75" width="30" height="34.5" as="geometry" />
        </mxCell>
        <mxCell id="3SQsZM_puAXQ-Eyw58xM-105" value="" style="endArrow=classic;html=1;exitX=1;exitY=0.5;exitDx=0;exitDy=0;" edge="1" parent="1" source="3SQsZM_puAXQ-Eyw58xM-75">
          <mxGeometry width="50" height="50" relative="1" as="geometry">
            <mxPoint x="460" y="460" as="sourcePoint" />
            <mxPoint x="780" y="550" as="targetPoint" />
          </mxGeometry>
        </mxCell>
        <mxCell id="3SQsZM_puAXQ-Eyw58xM-106" value="" style="endArrow=classic;startArrow=classic;html=1;exitX=0;exitY=0.5;exitDx=0;exitDy=0;" edge="1" parent="1" source="3SQsZM_puAXQ-Eyw58xM-45" target="3SQsZM_puAXQ-Eyw58xM-1">
          <mxGeometry width="50" height="50" relative="1" as="geometry">
            <mxPoint x="460" y="460" as="sourcePoint" />
            <mxPoint x="510" y="410" as="targetPoint" />
          </mxGeometry>
        </mxCell>
        <mxCell id="3SQsZM_puAXQ-Eyw58xM-108" value="" style="endArrow=classic;html=1;exitX=0.5;exitY=0;exitDx=0;exitDy=0;entryX=0.6;entryY=1.019;entryDx=0;entryDy=0;entryPerimeter=0;" edge="1" parent="1" source="3SQsZM_puAXQ-Eyw58xM-96" target="3SQsZM_puAXQ-Eyw58xM-58">
          <mxGeometry width="50" height="50" relative="1" as="geometry">
            <mxPoint x="460" y="460" as="sourcePoint" />
            <mxPoint x="510" y="410" as="targetPoint" />
          </mxGeometry>
        </mxCell>
        <mxCell id="3SQsZM_puAXQ-Eyw58xM-109" value="add event from extern services&amp;nbsp;" style="text;html=1;align=center;verticalAlign=middle;resizable=0;points=[];autosize=1;" vertex="1" parent="1">
          <mxGeometry x="840" y="350" width="180" height="20" as="geometry" />
        </mxCell>
        <mxCell id="3SQsZM_puAXQ-Eyw58xM-110" value="return event list" style="text;html=1;align=center;verticalAlign=middle;resizable=0;points=[];autosize=1;rotation=15;" vertex="1" parent="1">
          <mxGeometry x="170" y="260" width="100" height="20" as="geometry" />
        </mxCell>
      </root>
    </mxGraphModel>
  </diagram>
</mxfile>
